<svg xmlns="http://www.w3.org/2000/svg" viewBox="0 0 96 96">
  <defs>
    <linearGradient id="e399c19f-b68f-429d-b176-18c2117ff73c" x1="-1032.172" x2="-1059.213" y1="145.312" y2="65.426" gradientTransform="matrix(1 0 0 -1 1075 158)" gradientUnits="userSpaceOnUse">
      <stop offset="0" stop-color="#0078d4"/>
      <stop offset=".16" stop-color="#1380da"/>
      <stop offset=".53" stop-color="#3c91e5"/>
      <stop offset=".82" stop-color="#559cec"/>
      <stop offset="1" stop-color="#5ea0ef"/>
    </linearGradient>
  </defs>
  <path fill="#0078d4" d="M82.3 6l-61 10.4c-2.5.4-4.4 2.6-4.4 5.1v12.3L.2 41.7c-.3.3-.2.8.2 1l16.3 10.5v28c0 1.9 1.4 3.5 3.3 3.8l63.1 10.8c2.6.5 5-.9 5.4-3 .1-.6.1-1.2.1-1.8V11c0-3.1-2.7-5.5-5.8-5-1.7.2-3.2.5-4.8.7-.6.1-1.2.2-1.9.3h.2z"/>
  <path fill="url(#e399c19f-b68f-429d-b176-18c2117ff73c)" d="M88.1 10.7V67c0 1.9-1.3 3.5-3.1 3.9L66.7 75l.1-64.4 17.2-4.9c2.3-.7 4.7.7 5.2 3 .1.4.1.8.1 1.2 0 .2-.1.5-.2.8z" opacity=".25"/>
  <path fill="#fff" d="M66.7 10.6v64.4L34.6 82l-.1-52.2 10.1-9.4 22.1-9.8zm0 0l18.2 10.2L45.6 38.6l-11-9.2V21L66.7 10.6z"/>
</svg>
