<svg xmlns="http://www.w3.org/2000/svg" viewBox="0 0 13 13">
  <path fill="#0078d4" d="M11.394.906 4.663 2.22a.645.645 0 0 0-.486.56V4.48L.028 6.1a.108.108 0 0 0 .024.2l2.244 1.446v3.86c0 .262.193.483.454.524L11.475 13a.644.644 0 0 0 .744-.413c.014-.042.014-.165.014-.248V1.516a.643.643 0 0 0-.8-.688c-.234.028-.44.069-.661.097-.083.014-.165.028-.262.042h.027-.143z"/>
  <path fill="#5ea0ef" d="M12.168 1.475v7.765a.533.533 0 0 1-.428.538l-2.443.756.014-8.876 2.37-.675a.534.534 0 0 1 .717.413c.014.056.014.11.014.165 0 .028-.014.07-.028.11-.014-.097-.015-.165-.216-.196z" opacity=".25"/>
  <path fill="#fff" d="M9.311 1.463v8.876L4.76 11.302l-.014-7.195 1.392-1.295 3.044-1.35h.129zm0 0l2.51 1.406-6.088 2.634-1.515-1.268V2.864l5.093-1.4z"/>
</svg>
